<svg version="1.2" xmlns="http://www.w3.org/2000/svg" viewBox="0 0 242 200" width="242" height="200">
	<defs>
		<linearGradient id="g1" x2="1" gradientUnits="userSpaceOnUse" gradientTransform="matrix(200,0,0,200,21,0)">
			<stop offset="0" stop-color="#ffffff"/>
			<stop offset="1" stop-color="#ffffff"/>
		</linearGradient>
	</defs>
	<style>
		.s0 { fill: url(#g1) } 
		.s1 { fill: #ffffff } 
		.s4 { fill: #3eaa3e } 
	</style>
	<path fill-rule="evenodd" class="s0" d="m21 0h200v200h-200z"/>
	<g>
		<g>
			<path id="Shape 4 copy" fill-rule="evenodd" class="s1" d="m222.81 0c10.39 0 18.81 8.42 18.81 18.81v161.38c0 10.39-8.42 18.81-18.81 18.81-10.39 0-18.81-8.42-18.81-18.81v-161.38c0-10.39 8.42-18.81 18.81-18.81z"/>
			<path id="Shape 4 copy 2" fill-rule="evenodd" class="s1" d="m18.81 0c10.39 0 18.81 8.42 18.81 18.81v161.38c0 10.39-8.42 18.81-18.81 18.81-10.39 0-18.81-8.42-18.81-18.81v-161.38c0-10.39 8.42-18.81 18.81-18.81z"/>
			<path class="s2" d="m65.28 152.09h-34.28v-104.17h33.55q13.85 0 24.83 6.3 11.07 6.22 17.22 17.65 6.23 11.43 6.3 25.57v4.76q0 14.36-6.08 25.64-6.01 11.36-17 17.8-10.99 6.38-24.54 6.45zm-0.73-84.76h-8.43v65.42h8.72q10.84 0 16.63-7.69 5.79-7.69 5.79-22.86v-4.47q0-15.09-5.79-22.78-5.79-7.62-16.92-7.62zm146.44 29.08v42.79q-5.78 6.44-16.92 10.4-11.13 3.96-24.47 3.96-20.44 0-32.67-12.53-12.23-12.53-13.11-34.87l-0.08-9.01q0-15.39 5.42-26.89 5.43-11.43 15.61-17.65 10.11-6.16 23.37-6.16 19.48 0 30.25 8.87 10.77 8.93 12.53 26.59h-24.17q-1.25-8.72-5.57-12.45-4.25-3.74-12.16-3.74-9.45 0-14.58 8.06-5.13 7.98-5.2 22.85v6.3q0 15.61 5.27 23.45 5.35 7.84 16.78 7.84 9.81 0 14.65-4.4v-16.12h-17.51v-17.29z"/>
		</g>
		<path id="Shape 1" class="s3" d=""/>
		<path id="Shape 3" class="s1" d=""/>
		<path id="Shape 2" fill-rule="evenodd" class="s4" d="m117.5 55c-9.12 0-16.5-6.93-16.5-15.5 0-8.57 7.38-15.5 16.5-15.5 9.12 0 16.5 6.93 16.5 15.5 0 8.57-7.38 15.5-16.5 15.5z"/>
	</g>
</svg>